# Blender v2.92.0 OBJ File: 'LowPoly Spaceships.blend'
# www.blender.org
mtllib spaceship1.mtl
o M3_Ship_1_Cube.081
v 0.201862 0.059210 -0.289432
v 0.201862 -0.059210 -0.289432
v 0.085954 0.009684 0.358206
v 0.129332 -0.065462 0.342659
v 0.130788 0.090803 -0.242308
v 0.130788 0.090803 -0.171132
v 0.201862 0.059210 -0.099956
v 0.251065 0.065447 -0.028780
v 0.241061 0.065447 0.042396
v 0.174350 0.057817 0.125551
v 0.167671 0.074334 0.201652
v 0.152665 0.059914 0.271352
v 0.196042 -0.077106 0.243005
v 0.211048 -0.084797 0.168730
v 0.174350 -0.058148 0.101560
v 0.241061 -0.066936 0.042396
v 0.251065 -0.066936 -0.028780
v 0.201862 -0.059210 -0.099956
v 0.261069 -0.090803 -0.171132
v 0.261069 -0.090803 -0.242308
v 0.048438 -0.007295 0.440274
v 0.091816 -0.065256 0.401678
v 0.197627 0.002866 -0.251532
v 0.197627 0.014483 -0.251532
v 0.197627 0.002866 0.038131
v 0.197627 0.014483 0.038131
v 0.314971 0.002866 -0.251532
v 0.314971 0.014483 -0.251532
v 0.314971 0.002866 0.038131
v 0.314971 0.014483 0.038131
v 0.463699 0.017473 -0.002354
v 0.463699 0.007005 -0.002354
v 0.463699 0.007005 -0.134368
v 0.463699 0.017473 -0.134368
v 0.500000 -0.005234 0.084814
v 0.500000 -0.005234 -0.134368
v 0.362355 0.004185 -0.214204
v 0.362355 0.015436 -0.214204
v 0.362355 0.004185 0.002424
v 0.362355 0.015436 0.002424
v 0.090626 0.039592 -0.341084
v 0.090626 -0.039592 -0.341084
v 0.106237 -0.000000 -0.341084
v 0.112313 0.060450 -0.262410
v 0.130153 -0.000000 -0.341084
v 0.109292 -0.052909 -0.341084
v 0.109292 0.052909 -0.341084
v 0.106237 -0.000000 -0.293767
v 0.090626 -0.039592 -0.293767
v 0.090626 0.039592 -0.293767
v 0.108010 0.048524 -0.152908
v 0.108010 -0.048524 -0.152908
v 0.112313 -0.060450 -0.262410
v 0.136147 -0.000000 -0.262410
v 0.127142 -0.000000 -0.152908
v 0.094007 0.030007 -0.243766
v 0.094007 -0.108264 -0.243766
v 0.094007 0.009185 0.290055
v 0.094007 -0.091466 0.290055
v 0.146745 0.030007 -0.177389
v 0.192767 -0.108264 -0.177389
v 0.192767 0.009185 0.043235
v 0.192767 -0.091466 0.043235
v 0.094007 -0.126332 0.149242
v 0.094007 -0.126332 0.042477
v 0.094007 -0.111615 -0.064287
v 0.094007 -0.111615 -0.171051
v 0.160887 0.030007 -0.147336
v 0.174609 0.001852 -0.103212
v 0.174609 0.001852 -0.059087
v 0.192767 0.009185 -0.014962
v 0.192767 -0.108264 -0.014962
v 0.174609 -0.108264 -0.059087
v 0.174609 -0.093547 -0.103212
v 0.192767 -0.093547 -0.147336
v -0.201862 0.059210 -0.289432
v -0.201862 -0.059210 -0.289432
v -0.085954 0.009684 0.358206
v -0.129332 -0.065462 0.342659
v -0.130788 0.090803 -0.242308
v -0.130788 0.090803 -0.171132
v -0.201862 0.059210 -0.099956
v -0.251065 0.065447 -0.028780
v -0.241061 0.065447 0.042396
v -0.174350 0.057817 0.125551
v -0.167671 0.074334 0.201652
v -0.152665 0.059914 0.271352
v -0.196042 -0.077106 0.243005
v -0.211048 -0.084797 0.168730
v -0.174350 -0.058148 0.101560
v -0.241061 -0.066936 0.042396
v -0.251065 -0.066936 -0.028780
v -0.201862 -0.059210 -0.099956
v -0.261069 -0.090803 -0.171132
v -0.261069 -0.090803 -0.242308
v -0.048438 -0.007295 0.440274
v -0.091816 -0.065256 0.401678
v 0.000000 -0.059210 -0.289432
v 0.000000 0.009684 0.358206
v 0.000000 -0.065462 0.342659
v 0.000000 0.059210 -0.289432
v 0.000000 0.090803 -0.242308
v 0.000000 0.090803 -0.171132
v 0.000000 0.059210 -0.099956
v 0.000000 0.090803 -0.028780
v 0.000000 0.090803 0.042396
v 0.000000 0.057817 0.125551
v 0.000000 0.074334 0.201652
v 0.000000 0.059914 0.271352
v 0.000000 -0.090803 -0.242308
v 0.000000 -0.090803 -0.171132
v 0.000000 -0.059210 -0.099956
v 0.000000 -0.090803 -0.028780
v 0.000000 -0.090803 0.042396
v 0.000000 -0.058148 0.101560
v 0.000000 -0.084797 0.168730
v 0.000000 -0.077106 0.243005
v 0.000000 -0.065256 0.401678
v 0.000000 -0.007295 0.440274
v -0.197627 0.002866 -0.251532
v -0.197627 0.014483 -0.251532
v -0.197627 0.002866 0.038131
v -0.197627 0.014483 0.038131
v -0.314971 0.002866 -0.251532
v -0.314971 0.014483 -0.251532
v -0.314971 0.002866 0.038131
v -0.314971 0.014483 0.038131
v -0.463699 0.017473 -0.002354
v -0.463699 0.007005 -0.002354
v -0.463699 0.007005 -0.134368
v -0.463699 0.017473 -0.134368
v -0.500000 -0.005234 0.084814
v -0.500000 -0.005234 -0.134368
v -0.362355 0.004185 -0.214204
v -0.362355 0.015436 -0.214204
v -0.362355 0.004185 0.002424
v -0.362355 0.015436 0.002424
v -0.090626 0.039592 -0.341084
v -0.090626 -0.039592 -0.341084
v -0.106237 -0.000000 -0.341084
v -0.112313 0.060450 -0.262410
v -0.130153 -0.000000 -0.341084
v -0.109292 -0.052909 -0.341084
v -0.109292 0.052909 -0.341084
v -0.106237 -0.000000 -0.293767
v -0.090626 -0.039592 -0.293767
v -0.090626 0.039592 -0.293767
v -0.108010 0.048524 -0.152908
v -0.108010 -0.048524 -0.152908
v -0.112313 -0.060450 -0.262410
v -0.136147 -0.000000 -0.262410
v -0.127142 -0.000000 -0.152908
v 0.000000 -0.056899 -0.341084
v 0.000000 0.056899 -0.341084
v 0.000000 0.074554 -0.341084
v 0.000000 -0.074554 -0.341084
v 0.000000 -0.000000 -0.293767
v 0.000000 0.085179 -0.262410
v 0.000000 0.068375 -0.152908
v 0.000000 -0.085179 -0.262410
v 0.000000 -0.068375 -0.152908
v -0.094007 0.030007 -0.243766
v -0.094007 -0.108264 -0.243766
v -0.094007 0.009185 0.290055
v -0.094007 -0.091466 0.290055
v -0.146745 0.030007 -0.177389
v -0.192767 -0.108264 -0.177389
v -0.192767 0.009185 0.043235
v -0.192767 -0.091466 0.043235
v -0.094007 -0.126332 0.149242
v -0.094007 -0.126332 0.042477
v -0.094007 -0.111615 -0.064287
v -0.094007 -0.111615 -0.171051
v -0.160887 0.030007 -0.147336
v -0.174609 0.001852 -0.103212
v -0.174609 0.001852 -0.059087
v -0.192767 0.009185 -0.014962
v -0.192767 -0.108264 -0.014962
v -0.174609 -0.108264 -0.059087
v -0.174609 -0.093547 -0.103212
v -0.192767 -0.093547 -0.147336
v 0.000000 -0.126332 -0.243766
v 0.000000 0.009185 0.290055
v 0.000000 -0.109534 0.290055
v 0.000000 0.030007 -0.243766
v 0.000000 -0.129224 -0.171051
v 0.000000 -0.129224 -0.064287
v 0.000000 -0.143941 0.042477
v 0.000000 -0.143941 0.149242
vt 0.022287 0.946135
vt 0.164076 0.866634
vt 0.187713 0.908790
vt 0.045925 0.988291
vt 0.447653 0.707631
vt 0.471290 0.749787
vt -0.050791 0.483425
vt 0.232785 0.324422
vt 0.312287 0.466210
vt 0.028710 0.625213
vt 0.589441 0.628129
vt 0.613078 0.670285
vt 0.613078 0.670285
vt 0.471290 0.749787
vt 0.454075 0.386709
vt 0.465772 0.407569
vt 0.323984 0.487071
vt 0.483439 0.439078
vt 0.341651 0.518579
vt 0.501106 0.470587
vt 0.359318 0.550088
vt 0.518773 0.502095
vt 0.376985 0.581597
vt 0.536440 0.533604
vt 0.394652 0.613105
vt 0.554107 0.565112
vt 0.412319 0.644614
vt 0.571774 0.596621
vt 0.429986 0.676122
vt 0.040407 0.646074
vt 0.058074 0.677582
vt 0.075741 0.709091
vt 0.093408 0.740599
vt 0.111075 0.772108
vt 0.128742 0.803617
vt 0.146409 0.835125
vt -0.113078 0.704715
vt -0.101382 0.725575
vt -0.083715 0.757084
vt -0.066048 0.788592
vt -0.048380 0.820101
vt -0.030714 0.851609
vt -0.013047 0.883118
vt 0.004620 0.914627
vt 0.187713 0.908790
vt 0.550791 0.891575
vt 0.267215 1.050578
vt 0.045925 0.988291
vt 0.353742 0.260852
vt 0.394434 0.390599
vt 0.524181 0.349907
vt 0.483489 0.220160
vt 0.435126 0.520346
vt 0.564874 0.479654
vt 0.605566 0.609401
vt 0.605566 0.609401
vt 0.475819 0.650093
vt 0.475819 0.650093
vt 0.475819 0.650093
vt 0.516511 0.779840
vt 0.646258 0.739148
vt 0.605566 0.609401
vt 0.305379 0.561038
vt 0.346072 0.690785
vt 0.735313 0.568709
vt 0.694621 0.438962
vt 0.564874 0.479654
vt 0.564874 0.479654
vt 0.605566 0.609401
vt 0.435126 0.520346
vt 0.435126 0.520346
vt 0.564873 0.479654
vt 0.435126 0.520346
vt 0.475819 0.650093
vt 0.586475 0.467344
vt 0.500000 0.473365
vt 0.500000 0.473365
vt 0.586475 0.467344
vt 0.595400 0.375000
vt 0.595400 0.375000
vt 0.413525 0.467344
vt 0.500000 0.500000
vt 0.375000 0.500000
vt 0.625000 0.375000
vt 0.625000 0.500000
vt 0.404600 0.375000
vt 0.375000 0.375000
vt 0.500000 0.375000
vt 0.404600 0.375000
vt 0.413525 0.467344
vt 0.500000 0.560374
vt 0.375000 0.560374
vt 0.500000 0.643707
vt 0.375000 0.643707
vt 0.750000 0.500000
vt 0.750000 0.560374
vt 0.625000 0.560374
vt 0.750000 0.643707
vt 0.625000 0.643707
vt 0.250000 0.500000
vt 0.250000 0.560374
vt 0.250000 0.643707
vt 0.250000 0.684054
vt 0.375000 0.684054
vt 0.375000 0.750000
vt 0.250000 0.750000
vt 0.375000 0.375000
vt 0.625000 0.375000
vt 0.625000 0.500000
vt 0.375000 0.500000
vt 0.625000 0.750000
vt 0.625000 0.875000
vt 0.375000 0.875000
vt 0.375000 0.684054
vt 0.625000 0.684054
vt 0.625000 0.750000
vt 0.375000 0.750000
vt 0.625000 0.500000
vt 0.375000 0.500000
vt 0.375000 0.534054
vt 0.375000 0.534054
vt 0.375000 0.634054
vt 0.375000 0.634054
vt 0.375000 0.584054
vt 0.375000 0.584054
vt 0.625000 0.534054
vt 0.625000 0.584054
vt 0.625000 0.634054
vt 0.250000 0.500000
vt 0.250000 0.534054
vt 0.250000 0.584054
vt 0.250000 0.634054
vt 0.187713 0.908790
vt 0.164076 0.866634
vt 0.471290 0.749787
vt 0.447653 0.707631
vt 0.028710 0.625213
vt 0.312287 0.466210
vt 0.471290 0.749787
vt 0.323984 0.487071
vt 0.341651 0.518579
vt 0.359318 0.550088
vt 0.376985 0.581597
vt 0.394652 0.613105
vt 0.412319 0.644614
vt 0.429986 0.676122
vt 0.040407 0.646074
vt 0.058074 0.677582
vt 0.075741 0.709091
vt 0.093408 0.740599
vt 0.111075 0.772108
vt 0.128742 0.803617
vt 0.146409 0.835125
vt 0.187713 0.908790
vt 0.353742 0.260852
vt 0.483489 0.220160
vt 0.524181 0.349907
vt 0.394434 0.390599
vt 0.564874 0.479654
vt 0.435126 0.520346
vt 0.605566 0.609401
vt 0.475819 0.650093
vt 0.475819 0.650093
vt 0.605566 0.609401
vt 0.475819 0.650093
vt 0.605566 0.609401
vt 0.646258 0.739148
vt 0.516511 0.779840
vt 0.305379 0.561038
vt 0.346072 0.690785
vt 0.694621 0.438962
vt 0.735313 0.568709
vt 0.564874 0.479654
vt 0.605566 0.609401
vt 0.564874 0.479654
vt 0.435126 0.520346
vt 0.435126 0.520346
vt 0.564873 0.479654
vt 0.435126 0.520346
vt 0.475819 0.650093
vt 0.586475 0.467344
vt 0.586475 0.467344
vt 0.500000 0.473365
vt 0.500000 0.473365
vt 0.413525 0.467344
vt 0.375000 0.500000
vt 0.500000 0.500000
vt 0.625000 0.500000
vt 0.413525 0.467344
vt 0.375000 0.560374
vt 0.500000 0.560374
vt 0.375000 0.643707
vt 0.500000 0.643707
vt 0.625000 0.560374
vt 0.625000 0.643707
vt 0.375000 0.750000
vt 0.375000 0.684054
vt 0.375000 0.500000
vt 0.625000 0.500000
vt 0.625000 0.750000
vt 0.375000 0.684054
vt 0.375000 0.750000
vt 0.625000 0.750000
vt 0.625000 0.684054
vt 0.375000 0.500000
vt 0.625000 0.500000
vt 0.375000 0.534054
vt 0.375000 0.534054
vt 0.375000 0.634054
vt 0.375000 0.634054
vt 0.375000 0.584054
vt 0.375000 0.584054
vt 0.625000 0.534054
vt 0.625000 0.584054
vt 0.625000 0.634054
vn 0.0000 -0.9932 0.1161
vn 0.7782 0.1947 0.5970
vn 0.0000 0.0000 -1.0000
vn 0.0000 0.8657 0.5006
vn 0.0000 0.9793 0.2026
vn 0.0000 0.8306 -0.5569
vn 0.0000 1.0000 0.0000
vn 0.0000 0.9140 0.4057
vn 0.0538 0.9603 -0.2738
vn 0.1025 0.9947 0.0072
vn 0.0588 0.9641 0.2591
vn 0.0000 0.9772 -0.2121
vn 0.9112 0.3957 0.1147
vn 0.8125 0.5829 0.0000
vn 0.9146 0.3971 -0.0762
vn 0.8226 0.0000 -0.5686
vn 0.9903 -0.0000 0.1392
vn 0.7277 -0.0660 0.6827
vn 0.9634 0.1909 -0.1884
vn 0.9493 0.2349 0.2089
vn 0.0000 -0.8306 -0.5569
vn 0.0000 -1.0000 0.0000
vn 0.0000 -0.9140 0.4057
vn 0.0505 -0.9581 -0.2821
vn 0.0965 -0.9953 0.0068
vn 0.0536 -0.9326 0.3569
vn -0.0000 -0.9295 -0.3688
vn 0.0000 -0.9947 0.1030
vn 0.0000 -0.5542 0.8324
vn 0.0000 -1.0000 0.0035
vn 0.8137 0.3380 0.4729
vn -1.0000 0.0000 0.0000
vn 0.0000 0.0000 1.0000
vn 0.6188 0.0000 -0.7855
vn 0.5303 0.8478 0.0000
vn 0.0278 -0.9996 0.0000
vn -0.0201 0.9998 0.0000
vn 0.0471 0.0000 0.9989
vn -0.9231 0.0000 0.3844
vn -0.3195 -0.9476 0.0000
vn 0.6018 0.0000 0.7986
vn -0.9303 -0.3668 0.0000
vn -0.1990 -0.9797 0.0229
vn -0.0179 0.0410 -0.9990
vn -0.0179 -0.0410 -0.9990
vn -0.1990 0.9797 0.0229
vn -0.9303 0.3668 0.0000
vn 0.9280 -0.3659 -0.0707
vn 0.9276 -0.3657 0.0763
vn 0.2034 0.9722 -0.1161
vn 0.1966 0.9716 0.1313
vn 0.9280 0.3659 -0.0707
vn 0.9276 0.3657 0.0763
vn 0.2034 -0.9722 -0.1161
vn 0.1966 -0.9716 0.1313
vn 0.1812 -0.9550 0.2349
vn 1.0000 0.0000 0.0000
vn 0.6551 0.1090 -0.7476
vn 0.0407 -0.9931 0.1098
vn 0.9284 0.0000 0.3715
vn 0.5216 -0.8258 0.2144
vn 0.1685 -0.9855 -0.0203
vn 0.0531 -0.9801 -0.1912
vn 0.1994 -0.9796 0.0240
vn 0.9192 0.2735 -0.2833
vn 0.9851 0.1434 0.0953
vn 0.9248 0.0000 -0.3806
vn 0.1863 -0.9816 -0.0421
vn 0.1841 -0.9829 0.0000
vn 0.1824 -0.9740 -0.1343
vn -0.7782 0.1947 0.5970
vn -0.0538 0.9603 -0.2738
vn -0.1025 0.9947 0.0072
vn -0.0588 0.9641 0.2591
vn -0.9112 0.3957 0.1147
vn -0.8125 0.5829 0.0000
vn -0.9146 0.3971 -0.0762
vn -0.8226 0.0000 -0.5686
vn -0.9903 -0.0000 0.1392
vn -0.7277 -0.0660 0.6827
vn -0.9634 0.1909 -0.1884
vn -0.9493 0.2349 0.2089
vn -0.0505 -0.9581 -0.2821
vn -0.0965 -0.9953 0.0068
vn -0.0536 -0.9326 0.3569
vn -0.8137 0.3380 0.4729
vn -0.6188 0.0000 -0.7855
vn -0.5303 0.8478 0.0000
vn -0.0278 -0.9996 0.0000
vn 0.0201 0.9998 0.0000
vn -0.0471 0.0000 0.9989
vn 0.9231 0.0000 0.3844
vn 0.3195 -0.9476 0.0000
vn -0.6018 0.0000 0.7986
vn 0.9303 -0.3668 0.0000
vn 0.1990 -0.9797 0.0229
vn 0.0179 0.0410 -0.9990
vn 0.0179 -0.0410 -0.9990
vn 0.1990 0.9797 0.0229
vn 0.9303 0.3668 0.0000
vn -0.9280 -0.3659 -0.0707
vn -0.9276 -0.3657 0.0763
vn -0.2034 0.9722 -0.1161
vn -0.1966 0.9716 0.1313
vn -0.9280 0.3659 -0.0707
vn -0.9276 0.3657 0.0763
vn -0.2034 -0.9722 -0.1161
vn -0.1966 -0.9716 0.1313
vn -0.1812 -0.9550 0.2349
vn -0.6551 0.1090 -0.7476
vn -0.0407 -0.9931 0.1098
vn -0.9284 0.0000 0.3715
vn -0.5216 -0.8258 0.2144
vn -0.1685 -0.9855 -0.0203
vn -0.0531 -0.9801 -0.1912
vn -0.1994 -0.9796 0.0240
vn -0.9192 0.2735 -0.2833
vn -0.9851 0.1434 0.0953
vn -0.9248 0.0000 -0.3806
vn -0.1863 -0.9816 -0.0421
vn -0.1841 -0.9829 0.0000
vn -0.1824 -0.9740 -0.1343
usemtl Material-3
s off
f 117/1/1 13/2/1 4/3/1 100/4/1
f 13/2/2 12/5/2 3/6/2 4/3/2
f 98/7/3 101/8/3 1/9/3 2/10/3
f 12/5/4 109/11/4 99/12/4 3/6/4
f 3/6/5 99/12/5 119/13/5 21/14/5
f 1/9/6 101/15/6 102/16/6 5/17/6
f 5/17/7 102/16/7 103/18/7 6/19/7
f 6/19/8 103/18/8 104/20/8 7/21/8
f 7/21/9 104/20/9 105/22/9 8/23/9
f 8/23/10 105/22/10 106/24/10 9/25/10
f 9/25/11 106/24/11 107/26/11 10/27/11
f 10/27/12 107/26/12 108/28/12 11/29/12
f 11/29/5 108/28/5 109/11/5 12/5/5
f 2/10/13 1/9/13 5/17/13 20/30/13
f 20/30/14 5/17/14 6/19/14 19/31/14
f 19/31/15 6/19/15 7/21/15 18/32/15
f 18/32/16 7/21/16 8/23/16 17/33/16
f 17/33/17 8/23/17 9/25/17 16/34/17
f 16/34/18 9/25/18 10/27/18 15/35/18
f 15/35/19 10/27/19 11/29/19 14/36/19
f 14/36/20 11/29/20 12/5/20 13/2/20
f 98/37/21 2/10/21 20/30/21 110/38/21
f 110/38/22 20/30/22 19/31/22 111/39/22
f 111/39/23 19/31/23 18/32/23 112/40/23
f 112/40/24 18/32/24 17/33/24 113/41/24
f 113/41/25 17/33/25 16/34/25 114/42/25
f 114/42/26 16/34/26 15/35/26 115/43/26
f 115/43/27 15/35/27 14/36/27 116/44/27
f 116/44/28 14/36/28 13/2/28 117/1/28
f 22/45/29 21/14/29 119/46/29 118/47/29
f 100/4/30 4/3/30 22/45/30 118/48/30
f 4/3/31 3/6/31 21/14/31 22/45/31
f 23/49/32 25/50/32 26/51/32 24/52/32
f 25/50/33 29/53/33 30/54/33 26/51/33
f 38/55/34 34/56/34 33/57/34 37/58/34
f 27/59/3 23/60/3 24/61/3 28/62/3
f 25/63/22 23/64/22 27/59/22 29/53/22
f 30/54/7 28/62/7 24/65/7 26/66/7
f 31/67/35 35/68/35 36/69/35 34/56/35
f 37/58/36 33/57/36 32/70/36 39/71/36
f 40/72/37 31/67/37 34/56/37 38/55/37
f 39/71/38 32/70/38 31/67/38 40/72/38
f 32/70/39 35/73/39 31/67/39
f 34/56/3 36/69/3 33/57/3
f 33/57/40 36/74/40 35/73/40 32/70/40
f 29/53/41 39/71/41 40/72/41 30/54/41
f 30/54/37 40/72/37 38/55/37 28/62/37
f 27/59/36 37/58/36 39/71/36 29/53/36
f 28/62/34 38/55/34 37/58/34 27/59/34
f 41/75/42 43/76/42 48/77/42 50/78/42
f 154/79/43 41/75/43 50/78/43 101/80/43
f 42/81/3 43/76/3 45/82/3 46/83/3
f 41/75/3 154/79/3 155/84/3 47/85/3
f 153/86/3 42/81/3 46/83/3 156/87/3
f 43/76/3 41/75/3 47/85/3 45/82/3
f 157/88/44 101/80/44 50/78/44 48/77/44
f 98/89/45 157/88/45 48/77/45 49/90/45
f 42/81/46 153/86/46 98/89/46 49/90/46
f 43/76/47 42/81/47 49/90/47 48/77/47
f 46/83/48 45/82/48 54/91/48 53/92/48
f 53/92/49 54/91/49 55/93/49 52/94/49
f 47/85/50 155/95/50 158/96/50 44/97/50
f 44/97/51 158/96/51 159/98/51 51/99/51
f 45/82/52 47/85/52 44/97/52 54/91/52
f 54/91/53 44/97/53 51/99/53 55/93/53
f 156/100/54 46/83/54 53/92/54 160/101/54
f 160/101/55 53/92/55 52/94/55 161/102/55
f 189/103/56 64/104/56 59/105/56 184/106/56
f 182/107/3 185/108/3 56/109/3 57/110/3
f 59/105/33 58/111/33 183/112/33 184/113/33
f 72/114/57 71/115/57 62/116/57 63/117/57
f 57/110/58 56/109/58 60/118/58 61/119/58
f 67/120/59 57/110/59 61/119/59 75/121/59
f 58/111/60 59/105/60 63/117/60 62/116/60
f 59/105/61 64/104/61 72/114/61 63/117/61
f 64/104/62 65/122/62 73/123/62 72/114/62
f 65/122/63 66/124/63 74/125/63 73/123/63
f 66/124/64 67/120/64 75/121/64 74/125/64
f 61/119/65 60/118/65 68/126/65 75/121/65
f 75/121/66 68/126/66 69/127/66 74/125/66
f 74/125/57 69/127/57 70/128/57 73/123/57
f 73/123/67 70/128/67 71/115/67 72/114/67
f 182/129/68 57/110/68 67/120/68 186/130/68
f 186/130/69 67/120/69 66/124/69 187/131/69
f 187/131/70 66/124/70 65/122/70 188/132/70
f 188/132/69 65/122/69 64/104/69 189/103/69
f 117/1/1 100/4/1 79/133/1 88/134/1
f 88/134/71 79/133/71 78/135/71 87/136/71
f 98/7/3 77/137/3 76/138/3 101/8/3
f 87/136/4 78/135/4 99/12/4 109/11/4
f 78/135/5 96/139/5 119/13/5 99/12/5
f 76/138/6 80/140/6 102/16/6 101/15/6
f 80/140/7 81/141/7 103/18/7 102/16/7
f 81/141/8 82/142/8 104/20/8 103/18/8
f 82/142/72 83/143/72 105/22/72 104/20/72
f 83/143/73 84/144/73 106/24/73 105/22/73
f 84/144/74 85/145/74 107/26/74 106/24/74
f 85/145/12 86/146/12 108/28/12 107/26/12
f 86/146/5 87/136/5 109/11/5 108/28/5
f 77/137/75 95/147/75 80/140/75 76/138/75
f 95/147/76 94/148/76 81/141/76 80/140/76
f 94/148/77 93/149/77 82/142/77 81/141/77
f 93/149/78 92/150/78 83/143/78 82/142/78
f 92/150/79 91/151/79 84/144/79 83/143/79
f 91/151/80 90/152/80 85/145/80 84/144/80
f 90/152/81 89/153/81 86/146/81 85/145/81
f 89/153/82 88/134/82 87/136/82 86/146/82
f 98/37/21 110/38/21 95/147/21 77/137/21
f 110/38/22 111/39/22 94/148/22 95/147/22
f 111/39/23 112/40/23 93/149/23 94/148/23
f 112/40/83 113/41/83 92/150/83 93/149/83
f 113/41/84 114/42/84 91/151/84 92/150/84
f 114/42/85 115/43/85 90/152/85 91/151/85
f 115/43/27 116/44/27 89/153/27 90/152/27
f 116/44/28 117/1/28 88/134/28 89/153/28
f 97/154/29 118/47/29 119/46/29 96/139/29
f 100/4/30 118/48/30 97/154/30 79/133/30
f 79/133/86 97/154/86 96/139/86 78/135/86
f 120/155/57 121/156/57 123/157/57 122/158/57
f 122/158/33 123/157/33 127/159/33 126/160/33
f 135/161/87 134/162/87 130/163/87 131/164/87
f 124/165/3 125/166/3 121/167/3 120/168/3
f 122/169/22 126/160/22 124/165/22 120/170/22
f 127/159/7 123/171/7 121/172/7 125/166/7
f 128/173/88 131/164/88 133/174/88 132/175/88
f 134/162/89 136/176/89 129/177/89 130/163/89
f 137/178/90 135/161/90 131/164/90 128/173/90
f 136/176/91 137/178/91 128/173/91 129/177/91
f 129/177/92 128/173/92 132/179/92
f 131/164/3 130/163/3 133/174/3
f 130/163/93 129/177/93 132/179/93 133/180/93
f 126/160/94 127/159/94 137/178/94 136/176/94
f 127/159/90 125/166/90 135/161/90 137/178/90
f 124/165/89 126/160/89 136/176/89 134/162/89
f 125/166/87 124/165/87 134/162/87 135/161/87
f 138/181/95 147/182/95 145/183/95 140/184/95
f 154/79/96 101/80/96 147/182/96 138/181/96
f 139/185/3 143/186/3 142/187/3 140/184/3
f 138/181/3 144/188/3 155/84/3 154/79/3
f 153/86/3 156/87/3 143/186/3 139/185/3
f 140/184/3 142/187/3 144/188/3 138/181/3
f 157/88/97 145/183/97 147/182/97 101/80/97
f 98/89/98 146/189/98 145/183/98 157/88/98
f 139/185/99 146/189/99 98/89/99 153/86/99
f 140/184/100 145/183/100 146/189/100 139/185/100
f 143/186/101 150/190/101 151/191/101 142/187/101
f 150/190/102 149/192/102 152/193/102 151/191/102
f 144/188/103 141/194/103 158/96/103 155/95/103
f 141/194/104 148/195/104 159/98/104 158/96/104
f 142/187/105 151/191/105 141/194/105 144/188/105
f 151/191/106 152/193/106 148/195/106 141/194/106
f 156/100/107 160/101/107 150/190/107 143/186/107
f 160/101/108 161/102/108 149/192/108 150/190/108
f 189/103/109 184/106/109 165/196/109 170/197/109
f 182/107/3 163/198/3 162/199/3 185/108/3
f 165/196/33 184/113/33 183/112/33 164/200/33
f 178/201/32 169/202/32 168/203/32 177/204/32
f 163/198/110 167/205/110 166/206/110 162/199/110
f 173/207/111 181/208/111 167/205/111 163/198/111
f 164/200/112 168/203/112 169/202/112 165/196/112
f 165/196/113 169/202/113 178/201/113 170/197/113
f 170/197/114 178/201/114 179/209/114 171/210/114
f 171/210/115 179/209/115 180/211/115 172/212/115
f 172/212/116 180/211/116 181/208/116 173/207/116
f 167/205/117 181/208/117 174/213/117 166/206/117
f 181/208/118 180/211/118 175/214/118 174/213/118
f 180/211/32 179/209/32 176/215/32 175/214/32
f 179/209/119 178/201/119 177/204/119 176/215/119
f 182/129/120 186/130/120 173/207/120 163/198/120
f 186/130/121 187/131/121 172/212/121 173/207/121
f 187/131/122 188/132/122 171/210/122 172/212/122
f 188/132/121 189/103/121 170/197/121 171/210/121
