# Blender v2.92.0 OBJ File: 'missile.blend'
# www.blender.org
mtllib missile.mtl
o Missile_Cylinder
v -0.000000 0.000000 7.122041
v -0.000000 0.424939 -4.390343
v -0.300477 0.300477 -4.390342
v -0.424939 -0.000000 -4.390342
v -0.300477 -0.300478 -4.390342
v 0.000000 -0.424939 -4.390342
v 0.300478 -0.300477 -4.390342
v 0.424939 0.000000 -4.390343
v 0.300477 0.300478 -4.390342
v -0.000000 0.505345 3.383120
v -0.000000 0.540735 -2.228836
v -0.000000 0.474034 -3.672476
v -0.335192 0.335192 -3.672476
v -0.382357 0.382357 -2.228836
v -0.357333 0.357333 3.383120
v -0.474034 -0.000000 -3.672476
v -0.540735 -0.000000 -2.228836
v -0.505346 -0.000000 3.383120
v -0.335192 -0.335193 -3.672476
v -0.382357 -0.382358 -2.228836
v -0.357333 -0.357333 3.383120
v 0.000000 -0.474034 -3.672476
v 0.000000 -0.540735 -2.228836
v 0.000000 -0.505346 3.383121
v 0.335193 -0.335192 -3.672476
v 0.382358 -0.382357 -2.228836
v 0.357333 -0.357333 3.383120
v 0.474034 0.000000 -3.672476
v 0.540735 0.000000 -2.228836
v 0.505345 0.000000 3.383120
v 0.335192 0.335193 -3.672476
v 0.382357 0.382358 -2.228836
v 0.357333 0.357334 3.383120
v -0.000000 -0.000000 -3.102333
v -1.671876 1.489447 -4.435403
v -1.754520 1.513030 -2.991764
v 1.595273 1.513031 -2.991764
v 1.512629 1.489448 -4.435403
v 1.667753 -1.744298 -2.651854
v 1.585461 -1.660953 -4.765215
v -1.585460 -1.660954 -4.765215
v -1.667752 -1.744298 -2.651854
v -0.300477 0.300477 -4.390342
v -0.000000 0.424939 -4.390343
v -0.424939 -0.000000 -4.390342
v -0.300477 -0.300478 -4.390342
v 0.000000 -0.424939 -4.390342
v 0.300478 -0.300477 -4.390342
v 0.424939 0.000000 -4.390343
v 0.300477 0.300478 -4.390342
v -0.335192 0.335192 -3.672476
v -0.382357 0.382357 -2.228836
v -0.474034 -0.000000 -3.672476
v -0.540735 -0.000000 -2.228836
v -0.335192 -0.335193 -3.672476
v -0.382357 -0.382358 -2.228836
v 0.000000 -0.474034 -3.672476
v 0.000000 -0.474034 -3.672476
v 0.000000 -0.540735 -2.228836
v 0.000000 -0.540735 -2.228836
v 0.335193 -0.335192 -3.672476
v 0.382358 -0.382357 -2.228836
v 0.474034 0.000000 -3.672476
v 0.540735 0.000000 -2.228836
v 0.335192 0.335193 -3.672476
v 0.382357 0.382358 -2.228836
vt 0.258669 0.747905
vt 0.717622 0.747581
vt 0.717409 0.676943
vt 0.260120 0.676666
vt 0.255136 0.820286
vt 0.718045 0.818361
vt 0.249493 0.895383
vt 0.718771 0.889325
vt 0.250858 0.970546
vt 0.720046 0.959569
vt 0.251323 0.457891
vt 0.718499 0.465778
vt 0.720046 0.395851
vt 0.252978 0.383067
vt 0.256239 0.532705
vt 0.717685 0.535718
vt 0.259584 0.605432
vt 0.717401 0.606366
vt 0.983842 0.798557
vt 0.978535 0.755073
vt 0.900087 0.799049
vt 0.430579 0.256535
vt 0.217273 0.013450
vt 0.373515 0.296607
vt 0.309188 0.323516
vt 0.964403 0.883385
vt 0.875964 0.867060
vt 0.940690 0.920218
vt 0.142998 0.676514
vt 0.141460 0.610614
vt 0.079312 0.613979
vt 0.080717 0.676336
vt 0.240589 0.336011
vt 1.000000 0.250000
vt 1.000000 -0.000671
vt 0.875000 0.070000
vt 0.875000 0.175000
vt 0.074211 0.552091
vt 0.136239 0.544470
vt 0.170905 0.333512
vt 0.126083 0.477110
vt 0.064061 0.491047
vt 0.103378 0.316133
vt 0.750000 0.000671
vt 0.750000 0.250000
vt 0.875000 0.175000
vt 0.875000 0.070000
vt 0.047120 0.431529
vt 0.107185 0.410716
vt 0.041144 0.284684
vt 0.750000 0.250000
vt 1.000000 0.250000
vt 0.875000 0.175000
vt 0.063073 0.861923
vt 0.046506 0.922000
vt 0.107166 0.942462
vt 0.125646 0.875444
vt 0.512766 0.144877
vt 0.477726 0.205162
vt 0.135658 0.808616
vt 0.073244 0.800672
vt 0.750000 0.250000
vt 1.000000 0.250000
vt 0.875000 0.175000
vt 0.078796 0.738681
vt 0.141156 0.742390
vt 0.871518 0.973028
vt 0.909170 0.950638
vt 0.837296 0.896582
vt 0.979047 0.842099
vt 0.897406 0.823390
vt 0.829738 0.986197
vt 0.813940 0.903944
vt 0.889220 0.846470
vt 0.786053 0.989443
vt 0.789519 0.905759
vt 0.858344 0.884066
vt 1.000000 -0.000671
vt 0.875000 0.070000
vt 0.750000 0.000671
vt 0.750000 0.250000
vt 0.750000 0.000671
vt 1.000000 0.250000
vt 1.000000 -0.000671
vt 0.750000 0.000671
vt 0.875000 0.070000
vt 1.000000 -0.000671
vn -0.6044 0.7965 -0.0110
vn -0.7054 0.7054 0.0692
vn 0.0000 0.9976 0.0692
vn 0.0000 0.9998 -0.0198
vn -0.9907 -0.1358 -0.0110
vn -0.9976 0.0000 0.0692
vn -0.7965 -0.6044 -0.0110
vn -0.7054 -0.7054 0.0692
vn 0.0000 -1.0000 0.0063
vn 0.0000 -0.9976 0.0692
vn 0.7965 -0.6044 -0.0110
vn 0.7054 -0.7054 0.0692
vn 0.9907 -0.1358 -0.0110
vn 0.9976 0.0000 0.0692
vn 0.6044 0.7965 -0.0110
vn 0.7054 0.7054 0.0692
vn -0.6715 0.6715 -0.3133
vn 0.0000 0.9496 -0.3133
vn 0.0000 0.0000 -1.0000
vn 0.0000 0.0000 1.0000
vn -0.6715 -0.6715 -0.3133
vn 0.0000 -0.9496 -0.3133
vn 0.0000 0.9984 -0.0570
vn 0.6005 0.7973 -0.0601
vn 0.7054 0.7054 -0.0682
vn 0.0000 0.9977 -0.0682
vn 0.8036 -0.3015 0.5132
vn 0.5668 -0.6525 -0.5029
vn 0.4095 0.5036 -0.7606
vn 0.6402 0.7135 0.2845
vn 0.9977 0.0000 -0.0682
vn 0.9884 -0.1391 -0.0601
vn 0.7973 -0.6005 -0.0601
vn 0.7054 -0.7054 -0.0682
vn 0.3648 0.7725 -0.5198
vn 0.5208 0.2368 0.8202
vn 0.6864 -0.6120 0.3928
vn 0.4547 -0.3978 -0.7968
vn 0.0000 -0.9977 -0.0682
vn -0.3648 0.7725 -0.5198
vn 0.7056 -0.5281 -0.4725
vn -0.4547 -0.3978 -0.7968
vn -0.7054 -0.7054 -0.0682
vn -0.7973 -0.6005 -0.0601
vn -0.9884 -0.1391 -0.0601
vn -0.9977 0.0000 -0.0682
vn -0.7665 -0.3412 0.5441
vn 0.0384 0.5835 0.8112
vn -0.6818 0.6708 0.2918
vn -0.7054 0.7054 -0.0682
vn -0.6005 0.7973 -0.0601
vn 0.9496 0.0000 -0.3133
vn 0.6715 -0.6715 -0.3133
vn -0.9496 0.0000 -0.3133
vn 0.6715 0.6715 -0.3133
vn 0.6889 0.4188 -0.5915
vn -0.4473 0.4797 -0.7548
vn -0.5136 -0.6801 -0.5231
vn -0.0204 0.5670 0.8234
vn -0.7274 0.3735 -0.5757
vn -0.4084 -0.7387 0.5362
vn -0.7056 -0.5281 -0.4725
vn -0.5208 0.2368 0.8202
vn -0.6864 -0.6120 0.3928
vn 0.4084 -0.7387 0.5362
usemtl Material
s 1
f 52/1/1 15/2/2 10/3/3 11/4/4
f 54/5/5 18/6/6 15/2/2 52/1/1
f 56/7/7 21/8/8 18/6/6 54/5/5
f 60/9/9 24/10/10 21/8/8 56/7/7
f 62/11/11 27/12/12 24/13/10 60/14/9
f 29/15/13 30/16/14 27/12/12 62/11/11
f 66/17/15 33/18/16 30/16/14 29/15/13
f 11/4/4 10/3/3 33/18/16 66/17/15
f 48/19/17 6/20/18 34/21/19
f 18/22/6 1/23/20 15/24/2
f 15/24/2 1/23/20 10/25/3
f 9/26/21 34/27/19 2/28/22
f 12/29/23 11/4/4 66/17/15 65/30/24
f 50/31/25 44/32/26 12/29/23 65/30/24
f 10/25/3 1/23/20 33/33/16
f 64/34/27 28/35/28 38/36/29 37/37/30
f 49/38/31 50/31/25 65/30/24 63/39/32
f 33/33/16 1/23/20 30/40/14
f 63/39/32 29/15/13 62/11/11 61/41/33
f 7/42/34 49/38/31 63/39/32 61/41/33
f 30/40/14 1/23/20 27/43/12
f 25/44/35 26/45/36 39/46/37 40/47/38
f 47/48/39 7/42/34 61/41/33 57/49/39
f 27/43/12 1/23/20 24/50/10
f 19/51/40 22/52/41 41/53/42
f 46/54/43 47/55/39 57/56/39 55/57/44
f 24/58/10 1/23/20 21/59/8
f 55/57/44 56/7/7 54/5/5 53/60/45
f 45/61/46 46/54/43 55/57/44 53/60/45
f 21/59/8 1/23/20 18/22/6
f 17/62/47 14/63/48 36/64/49
f 3/65/50 45/61/46 53/60/45 51/66/51
f 4/67/52 43/68/53 34/69/19
f 8/70/54 48/19/17 34/71/19
f 5/72/55 4/67/52 34/73/19
f 9/26/21 8/70/54 34/74/19
f 6/75/18 5/72/55 34/76/19
f 2/28/22 34/77/19 43/68/53
f 44/32/26 3/65/50 51/66/51 12/29/23
f 51/66/51 52/1/1 11/4/4 12/29/23
f 14/63/48 13/78/56 35/79/57 36/64/49
f 13/78/56 16/80/58 35/79/57
f 16/80/58 17/62/47 36/64/49 35/79/57
f 32/81/59 64/34/27 37/37/30
f 31/82/60 32/81/59 37/37/30 38/36/29
f 28/35/28 31/82/60 38/36/29
f 26/45/36 59/83/61 39/46/37
f 59/83/61 58/84/62 40/47/38 39/46/37
f 58/84/62 25/44/35 40/47/38
f 20/85/63 19/51/40 41/53/42 42/86/64
f 23/87/65 20/85/63 42/86/64
f 22/52/41 23/87/65 42/86/64 41/53/42
